<svg width="1000" height="1000" viewBox="0 0 1000 1000" fill="none" xmlns="http://www.w3.org/2000/svg">
<rect width="1000" height="1000" fill="#99FFE4"/>
<path d="M504.8 722C476.4 722 451.8 716.8 431 706.4C410.2 695.6 394 680.6 382.4 661.4C371.2 641.8 365.6 618.8 365.6 592.4V401.6C365.6 375.2 371.2 352.4 382.4 333.2C394 313.6 410.2 298.6 431 288.2C451.8 277.4 476.4 272 504.8 272C532.8 272 557.2 277.4 578 288.2C598.8 298.6 615 313.6 626.6 333.2C638.2 352.4 644 375.2 644 401.6H568.4C568.4 381.2 562.8 365.6 551.6 354.8C540.8 343.6 525.2 338 504.8 338C484.4 338 468.6 343.6 457.4 354.8C446.2 365.6 440.6 381.2 440.6 401.6V592.4C440.6 612.8 446.2 628.6 457.4 639.8C468.6 650.6 484.4 656 504.8 656C525.2 656 540.8 650.6 551.6 639.8C562.8 628.6 568.4 612.8 568.4 592.4H644C644 618.8 638.2 641.8 626.6 661.4C615 680.6 598.8 695.6 578 706.4C557.2 716.8 532.8 722 504.8 722Z" fill="#101010"/>
</svg>
