<svg width="3130" height="1000" viewBox="0 0 3130 1000" fill="none" xmlns="http://www.w3.org/2000/svg">
<rect x="15" y="15" width="970" height="970" stroke="black" stroke-width="30"/>
<path d="M504.8 722C476.4 722 451.8 716.8 431 706.4C410.2 695.6 394 680.6 382.4 661.4C371.2 641.8 365.6 618.8 365.6 592.4V401.6C365.6 375.2 371.2 352.4 382.4 333.2C394 313.6 410.2 298.6 431 288.2C451.8 277.4 476.4 272 504.8 272C532.8 272 557.2 277.4 578 288.2C598.8 298.6 615 313.6 626.6 333.2C638.2 352.4 644 375.2 644 401.6H568.4C568.4 381.2 562.8 365.6 551.6 354.8C540.8 343.6 525.2 338 504.8 338C484.4 338 468.6 343.6 457.4 354.8C446.2 365.6 440.6 381.2 440.6 401.6V592.4C440.6 612.8 446.2 628.6 457.4 639.8C468.6 650.6 484.4 656 504.8 656C525.2 656 540.8 650.6 551.6 639.8C562.8 628.6 568.4 612.8 568.4 592.4H644C644 618.8 638.2 641.8 626.6 661.4C615 680.6 598.8 695.6 578 706.4C557.2 716.8 532.8 722 504.8 722Z" fill="black"/>
<path d="M1379.6 666.5C1358.3 666.5 1339.85 662.6 1324.25 654.8C1308.65 646.7 1296.5 635.45 1287.8 621.05C1279.4 606.35 1275.2 589.1 1275.2 569.3V426.2C1275.2 406.4 1279.4 389.3 1287.8 374.9C1296.5 360.2 1308.65 348.95 1324.25 341.15C1339.85 333.05 1358.3 329 1379.6 329C1400.6 329 1418.9 333.05 1434.5 341.15C1450.1 348.95 1462.25 360.2 1470.95 374.9C1479.65 389.3 1484 406.4 1484 426.2H1427.3C1427.3 410.9 1423.1 399.2 1414.7 391.1C1406.6 382.7 1394.9 378.5 1379.6 378.5C1364.3 378.5 1352.45 382.7 1344.05 391.1C1335.65 399.2 1331.45 410.9 1331.45 426.2V569.3C1331.45 584.6 1335.65 596.45 1344.05 604.85C1352.45 612.95 1364.3 617 1379.6 617C1394.9 617 1406.6 612.95 1414.7 604.85C1423.1 596.45 1427.3 584.6 1427.3 569.3H1484C1484 589.1 1479.65 606.35 1470.95 621.05C1462.25 635.45 1450.1 646.7 1434.5 654.8C1418.9 662.6 1400.6 666.5 1379.6 666.5ZM1645.82 666.5C1614.32 666.5 1589.57 657.8 1571.57 640.4C1553.57 622.7 1544.57 598.7 1544.57 568.4V414.5H1600.82V567.95C1600.82 583.55 1604.72 595.7 1612.52 604.4C1620.32 613.1 1631.42 617.45 1645.82 617.45C1659.92 617.45 1670.87 613.1 1678.67 604.4C1686.77 595.7 1690.82 583.55 1690.82 567.95V414.5H1747.07V568.4C1747.07 598.7 1737.92 622.7 1719.62 640.4C1701.32 657.8 1676.72 666.5 1645.82 666.5ZM1916.1 666.5C1895.1 666.5 1876.8 662.45 1861.2 654.35C1845.6 646.25 1833.45 634.85 1824.75 620.15C1816.35 605.15 1812.15 587.6 1812.15 567.5V509C1812.15 488.9 1816.35 471.5 1824.75 456.8C1833.45 441.8 1845.6 430.25 1861.2 422.15C1876.8 414.05 1895.1 410 1916.1 410C1936.8 410 1954.8 414.05 1970.1 422.15C1985.7 430.25 1997.7 441.65 2006.1 456.35C2014.8 470.75 2019.15 487.7 2019.15 507.2V552.2H1866.15V569.3C1866.15 586.1 1870.5 598.85 1879.2 607.55C1887.9 615.95 1900.2 620.15 1916.1 620.15C1927.8 620.15 1937.7 618.2 1945.8 614.3C1954.2 610.1 1959.15 604.1 1960.65 596.3H2016.45C2012.55 617.6 2001.45 634.7 1983.15 647.6C1964.85 660.2 1942.5 666.5 1916.1 666.5ZM1866.15 507.2V515.75L1965.15 515.3V506.75C1965.15 489.65 1960.95 476.45 1952.55 467.15C1944.15 457.85 1932 453.2 1916.1 453.2C1899.6 453.2 1887.15 458 1878.75 467.6C1870.35 476.9 1866.15 490.1 1866.15 507.2ZM2085.12 662V333.5H2141.37V414.5L2140.02 460.4C2143.02 444.8 2150.37 432.5 2162.07 423.5C2173.77 414.5 2188.62 410 2206.62 410C2230.92 410 2250.27 418.1 2264.67 434.3C2279.37 450.5 2286.72 472.25 2286.72 499.55V662H2230.47V506.3C2230.47 491 2226.42 479.3 2218.32 471.2C2210.52 462.8 2199.87 458.6 2186.37 458.6C2172.27 458.6 2161.17 462.8 2153.07 471.2C2145.27 479.6 2141.37 491.6 2141.37 507.2V662H2085.12ZM2427.85 666.5C2402.65 666.5 2382.7 659.45 2368 645.35C2353.6 630.95 2346.4 612.2 2346.4 589.1C2346.4 565.1 2354.65 546.05 2371.15 531.95C2387.65 517.55 2410.3 510.35 2439.1 510.35H2499.4V492.8C2499.4 467.9 2484.85 455.45 2455.75 455.45C2442.55 455.45 2432.05 458 2424.25 463.1C2416.45 468.2 2412.1 475.4 2411.2 484.7H2357.2C2358.4 462.5 2367.7 444.5 2385.1 430.7C2402.8 416.9 2426.5 410 2456.2 410C2487.7 410 2512.15 417.35 2529.55 432.05C2546.95 446.75 2555.65 467.45 2555.65 494.15V662H2500.75V615.65C2498.65 631.55 2491.15 644 2478.25 653C2465.35 662 2448.55 666.5 2427.85 666.5ZM2445.85 620.6C2462.35 620.6 2475.4 616.55 2485 608.45C2494.6 600.35 2499.4 589.55 2499.4 576.05V546.8H2441.8C2429.5 546.8 2419.75 550.25 2412.55 557.15C2405.35 564.05 2401.75 572.9 2401.75 583.7C2401.75 594.8 2405.5 603.8 2413 610.7C2420.8 617.3 2431.75 620.6 2445.85 620.6ZM2624.77 662V414.5H2679.67V460.85C2682.67 445.25 2690.02 432.95 2701.72 423.95C2713.42 414.65 2728.27 410 2746.27 410C2770.57 410 2789.92 418.1 2804.32 434.3C2819.02 450.5 2826.37 472.25 2826.37 499.55V662H2770.12V506.3C2770.12 491 2766.07 479.3 2757.97 471.2C2750.17 462.8 2739.52 458.6 2726.02 458.6C2711.92 458.6 2700.82 462.8 2692.72 471.2C2684.92 479.6 2681.02 491.6 2681.02 507.2V662H2624.77ZM2972.45 666.5C2948.45 666.5 2928.95 657.95 2913.95 640.85C2899.25 623.75 2891.9 600.8 2891.9 572V504.95C2891.9 475.85 2899.25 452.75 2913.95 435.65C2928.65 418.55 2948.15 410 2972.45 410C2989.55 410 3003.95 414.35 3015.65 423.05C3027.65 431.75 3036.05 443.9 3040.85 459.5L3039.05 402.8V333.5H3095.3V662H3040.4V617C3035.9 632.6 3027.8 644.75 3016.1 653.45C3004.4 662.15 2989.85 666.5 2972.45 666.5ZM2993.6 617.9C3008 617.9 3019.1 613.55 3026.9 604.85C3035 596.15 3039.05 583.85 3039.05 567.95V508.55C3039.05 492.65 3035 480.35 3026.9 471.65C3019.1 462.95 3008 458.6 2993.6 458.6C2979.2 458.6 2967.95 462.5 2959.85 470.3C2952.05 478.1 2948.15 490.1 2948.15 506.3V570.2C2948.15 586.4 2952.05 598.4 2959.85 606.2C2967.95 614 2979.2 617.9 2993.6 617.9Z" fill="black"/>
</svg>
